<svg width="204" height="211" viewBox="0 0 204 211" fill="none" xmlns="http://www.w3.org/2000/svg">
<path d="M1.5794 10.7208V211H202.355V10.7208H1.5794ZM106.371 182.049C103.413 188.039 97.7596 191.99 91.2199 193.887C81.1629 196.187 71.5488 194.874 64.3838 190.586C59.5898 187.65 55.8509 183.141 53.3106 177.943C58.4043 174.837 63.4849 171.719 68.5786 168.613C68.7088 168.665 69.1127 169.393 69.6468 170.328C71.5879 173.59 73.2684 175.89 76.5773 177.501C79.8211 178.606 86.934 179.307 89.6958 173.616C91.3763 170.718 90.8421 161.232 90.8421 150.928C90.8421 134.75 90.9203 118.832 90.9203 102.447H109.706C109.706 119.651 109.797 136.894 109.706 154.073C109.732 164.611 110.644 174.175 106.371 182.049ZM184.287 176.76C177.76 199.032 141.362 199.76 126.823 185.038C123.749 181.581 121.821 179.762 119.997 175.76C127.722 171.329 127.722 171.329 135.252 166.989C139.343 173.252 143.121 176.695 149.908 178.099C159.131 179.216 168.406 176.059 166.322 166.3C164.186 158.322 147.446 156.386 136.047 147.848C124.479 140.104 121.769 121.275 131.279 110.516C134.444 106.54 139.851 103.564 145.518 102.135L151.432 101.368C162.792 101.134 169.892 104.123 175.102 109.931C176.548 111.4 177.734 112.972 179.949 116.402C173.904 120.249 173.917 120.21 165.254 125.81C163.404 121.834 160.33 119.339 157.086 118.248C152.044 116.727 145.687 118.378 144.371 123.692C143.915 125.329 144.006 126.85 144.736 129.553C146.781 134.204 153.634 136.219 159.769 139.025C177.46 146.185 183.44 153.852 184.912 162.987C186.319 170.9 184.56 175.994 184.287 176.76Z" fill="#FFCE45"/>
<path d="M1.60569 1.59888V201.878H202.395V1.59888H1.60569ZM106.397 172.927C103.44 178.917 97.7859 182.868 91.2462 184.765C81.1892 187.065 71.5751 185.752 64.4101 181.464C59.6161 178.528 55.8772 174.019 53.3369 168.821C58.4306 165.715 63.5112 162.597 68.6049 159.491C68.7351 159.543 69.139 160.271 69.6731 161.206C71.6142 164.468 73.2947 166.768 76.6036 168.379C79.8474 169.484 86.9603 170.185 89.722 164.494C91.4026 161.596 90.8684 152.11 90.8684 141.806C90.8684 125.628 90.9466 109.71 90.9466 93.3248H109.732C109.732 110.529 109.823 127.772 109.732 144.951C109.758 155.489 110.683 165.053 106.397 172.927ZM184.313 167.638C177.786 189.91 141.388 190.638 126.85 175.916C123.775 172.459 121.847 170.64 120.023 166.638C127.749 162.207 127.749 162.207 135.278 157.867C139.369 164.13 143.147 167.574 149.934 168.977C159.157 170.094 168.433 166.937 166.348 157.178C164.212 149.2 147.472 147.264 136.073 138.726C124.505 130.982 121.795 112.153 131.305 101.394C134.471 97.4179 139.877 94.4423 145.544 93.0129L151.458 92.2463C162.818 92.0124 169.918 95.001 175.129 100.809C176.575 102.278 177.76 103.85 179.975 107.281C173.93 111.127 173.943 111.088 165.28 116.688C163.43 112.712 160.356 110.217 157.112 109.126C152.07 107.605 145.713 109.256 144.397 114.57C143.941 116.208 144.033 117.728 144.762 120.431C146.807 125.083 153.66 127.097 159.796 129.903C177.487 137.063 183.466 144.73 184.938 153.865C186.345 161.765 184.587 166.872 184.313 167.638Z" stroke="black" stroke-width="3" stroke-miterlimit="10"/>
</svg>
