<svg width="204" height="211" viewBox="0 0 204 211" fill="none" xmlns="http://www.w3.org/2000/svg">
<path d="M1 111V211H201.006V10.9938H1V111ZM162.178 103.031C167.256 104.3 171.131 106.556 174.688 110.238C176.531 112.206 179.259 115.794 179.481 116.65C179.544 116.9 170.847 122.744 165.575 126.016C165.388 126.141 164.622 125.319 163.762 124.047C161.191 120.297 158.494 118.681 154.366 118.397C148.303 117.984 144.366 121.159 144.428 126.459C144.428 128.016 144.647 128.934 145.284 130.209C146.619 132.972 149.097 134.622 156.872 137.991C171.191 144.147 177.316 148.209 181.122 153.991C185.372 160.434 186.328 170.722 183.441 178.372C180.266 186.691 172.394 192.341 161.316 194.216C157.887 194.819 149.759 194.725 146.078 194.059C138.047 192.631 130.428 188.663 125.728 183.456C123.884 181.425 120.3 176.122 120.522 175.738C120.616 175.613 121.444 175.103 122.366 174.563L129.794 170.281L135.544 166.947L136.75 168.728C138.431 171.3 142.116 174.822 144.338 175.997C150.719 179.363 159.481 178.884 163.797 175.013C165.641 173.331 166.4 171.584 166.4 169.013C166.4 166.694 166.119 165.678 164.909 163.934C163.353 161.716 160.178 159.841 151.159 155.934C140.841 151.491 136.397 148.728 132.334 144.347C129.984 141.806 127.763 137.744 126.841 134.347C126.078 131.522 125.888 124.441 126.491 121.584C128.616 111.584 136.141 104.663 147 102.6C150.525 101.934 158.719 102.188 162.175 103.044L162.178 103.031ZM115.225 111.375L115.287 119.563H89.2563V193.531H70.8438V119.563H44.8125V111.531L45.0313 103.281C45.125 103.156 60.9688 103.094 80.175 103.125L115.128 103.219L115.225 111.375Z" fill="#007ACC"/>
<path d="M2 102V202H202.006V1.99377H2V102ZM163.178 94.0313C168.256 95.3 172.131 97.5563 175.688 101.238C177.531 103.206 180.259 106.794 180.481 107.65C180.544 107.9 171.847 113.744 166.575 117.016C166.388 117.141 165.622 116.319 164.762 115.047C162.191 111.297 159.494 109.681 155.366 109.397C149.303 108.984 145.366 112.159 145.428 117.459C145.428 119.016 145.647 119.934 146.284 121.209C147.619 123.972 150.097 125.622 157.872 128.991C172.191 135.147 178.316 139.209 182.122 144.991C186.372 151.434 187.328 161.722 184.441 169.372C181.266 177.691 173.394 183.341 162.316 185.216C158.887 185.819 150.759 185.725 147.078 185.059C139.047 183.631 131.428 179.663 126.728 174.456C124.884 172.425 121.3 167.122 121.522 166.738C121.616 166.613 122.444 166.103 123.366 165.563L130.794 161.281L136.544 157.947L137.75 159.728C139.431 162.3 143.116 165.822 145.338 166.997C151.719 170.363 160.481 169.884 164.797 166.013C166.641 164.331 167.4 162.584 167.4 160.013C167.4 157.694 167.119 156.678 165.909 154.934C164.353 152.716 161.178 150.841 152.159 146.934C141.841 142.491 137.397 139.728 133.334 135.347C130.984 132.806 128.763 128.744 127.841 125.347C127.078 122.522 126.888 115.441 127.491 112.584C129.616 102.584 137.141 95.6625 148 93.6C151.525 92.9344 159.719 93.1875 163.175 94.0438L163.178 94.0313ZM116.225 102.375L116.287 110.563H90.2563V184.531H71.8438V110.563H45.8125V102.531L46.0313 94.2813C46.125 94.1563 61.9688 94.0938 81.175 94.125L116.128 94.2188L116.225 102.375Z" stroke="black" stroke-width="3"/>
</svg>
