<svg width="201" height="167" viewBox="0 0 201 167" fill="none" xmlns="http://www.w3.org/2000/svg">
<path d="M1 96.0896V11.0166L74.875 53.5531V81.9108L25.625 53.5531V110.268L1 96.0896Z" fill="#00B0FF"/>
<path d="M74.875 53.5531L148.75 11.0164V96.0894L99.5 124.447L74.875 110.268L124.125 81.9106V53.5529L74.875 81.9108V53.5531Z" fill="#00B0FF"/>
<path d="M74.875 110.268V138.626L124.125 166.984V138.626L74.875 110.268Z" fill="#00B0FF"/>
<path d="M124.125 166.984L198 124.447V67.7317L173.375 81.9106V110.268L124.125 138.626V166.984ZM173.375 53.5529V25.1952L198 11.0164V39.374L173.375 53.5529Z" fill="#00B0FF"/>
<path d="M75.875 45.5367L2 3.00021V88.0732L26.625 102.252V45.5367L75.875 73.8944M75.875 45.5367V73.8944M75.875 45.5367L149.75 3V88.073L100.5 116.431L75.875 102.252M75.875 73.8944L125.125 45.5365V73.8942L75.875 102.252M75.875 102.252V130.61L125.125 158.967M75.875 102.252L125.125 130.61M125.125 158.967V130.61M125.125 158.967L199 116.431V59.7154L174.375 73.8942V102.252L125.125 130.61M174.375 45.5365V17.1788L199 3V31.3577L174.375 45.5365Z" stroke="black" stroke-width="3"/>
</svg>
