<svg width="246" height="225" viewBox="0 0 246 225" fill="none" xmlns="http://www.w3.org/2000/svg">
<g clip-path="url(#clip0_10_98)">
<path d="M145.714 112.131C145.714 124.348 135.799 134.261 123.559 134.261C111.328 134.261 101.405 124.357 101.405 112.131C101.405 99.9041 111.319 90 123.559 90C135.799 90 145.714 99.913 145.714 112.131Z" fill="#00D8FF"/>
<path d="M123.2 198.126C140.589 215.016 157.729 225.009 171.545 225.009C176.071 225.009 180.364 224.057 183.928 221.921C196.31 214.775 200.835 196.934 196.551 171.475C195.838 166.955 194.885 162.434 193.691 157.673C198.448 156.25 202.742 154.817 207.027 153.393C231.088 144.112 244.423 131.263 244.423 117.238C244.423 102.965 231.088 90.1156 207.027 81.0836C202.742 79.4195 198.448 77.9958 193.691 76.8034C194.885 72.0515 195.838 67.5222 196.551 63.0017C200.595 37.0713 196.078 18.9894 183.687 11.8439C180.115 9.70825 175.821 8.7561 171.305 8.7561C157.729 8.7561 140.34 18.7492 122.96 35.6386C105.812 18.7492 88.6633 8.7561 74.8556 8.7561C70.3303 8.7561 66.0365 9.70825 62.4732 11.8439C50.0908 18.9894 45.5655 36.831 49.8503 62.2898C50.563 66.8103 51.5161 71.3307 52.7098 76.0915C47.9529 77.5152 43.6591 78.9479 39.3743 80.3717C15.3132 89.6529 1.97763 102.502 1.97763 116.527C1.97763 130.8 15.3132 143.649 39.3743 152.681C43.6591 154.345 47.9529 155.769 52.7098 156.962C51.5518 161.518 50.5897 166.118 49.8503 170.763C45.806 196.222 50.3224 214.304 62.4732 221.209C66.0454 223.354 70.3392 224.297 74.8556 224.297C88.6633 224.76 105.812 214.775 123.2 198.126ZM109.856 166.003C114.141 166.243 118.675 166.243 123.192 166.243C127.708 166.243 132.242 166.243 136.527 166.003C132.331 171.52 127.877 176.832 123.192 181.94C118.497 176.841 114.052 171.52 109.856 166.003ZM80.3253 141.505C82.7038 145.545 84.8506 149.362 87.4786 153.162C80.45 152.263 73.457 151.071 66.5265 149.594C68.6733 143.178 71.0518 136.504 73.9025 129.848C75.8088 133.647 77.9468 137.705 80.3253 141.505ZM66.5087 84.1625C73.172 82.7387 80.0847 81.5463 87.4607 80.5941C85.0822 84.4027 82.7038 88.2113 80.3074 92.2513C77.9111 96.2912 75.7821 100.109 73.8846 104.149C70.9806 97.6616 68.513 90.9788 66.5087 84.1625ZM79.6126 116.758C82.7038 110.342 86.0354 103.908 89.857 97.4925C93.4292 91.308 97.4825 85.1235 101.527 78.939C115.967 77.978 130.443 77.978 144.883 78.939C149.168 85.1235 152.981 91.308 156.553 97.4925C160.365 103.908 163.706 110.342 166.797 116.758C163.67 123.325 160.25 129.759 156.553 136.023C152.981 142.208 148.927 148.392 144.883 154.577C130.443 155.538 115.967 155.538 101.527 154.577C97.3845 148.552 93.4916 142.368 89.857 136.023C86.1601 129.759 82.7394 123.325 79.6126 116.758ZM172.739 103.908L166.316 92.011C163.938 87.971 161.791 84.1536 159.163 80.3539C166.539 81.306 173.452 82.4984 180.115 83.9222C177.977 90.5783 175.59 97.2433 172.739 103.908ZM172.739 129.607C175.598 136.264 177.977 142.929 180.115 149.353C173.452 150.777 166.539 151.969 159.163 152.922C161.541 149.113 163.92 145.304 166.316 141.265C168.463 137.696 170.601 133.647 172.739 129.607ZM178.209 212.168C176.302 213.361 173.924 213.832 171.305 213.832C159.635 213.832 145.106 204.311 130.817 190.037C138.095 182.153 144.856 173.807 151.056 165.05C161.809 164.169 172.472 162.505 182.974 160.058C184.168 164.338 184.881 168.628 185.593 172.908C188.925 193.125 186.306 207.639 178.217 212.168H178.209ZM190.6 86.7786C217.28 94.3958 233.235 106.044 233.235 116.758C233.235 126.039 222.277 135.311 202.991 142.697C199.178 144.121 194.894 145.554 190.609 146.737C187.366 136.504 183.473 126.493 178.939 116.758C183.696 106.525 187.758 96.5404 190.609 86.7786H190.6ZM171.545 19.6835C174.164 19.6835 176.302 20.1552 178.449 21.3476C186.315 25.868 189.166 40.1413 185.825 60.608C185.112 64.6479 184.159 68.937 183.206 73.4575C172.659 71.2329 162.005 69.5688 151.288 68.4654C145.159 59.6558 138.398 51.3001 131.049 43.4783C145.337 29.4363 159.867 19.6835 171.536 19.6835H171.545ZM136.536 67.5133C132.251 67.273 127.717 67.273 123.2 67.273C118.684 67.273 114.15 67.273 109.865 67.5133C114.15 61.8093 118.684 56.568 123.2 51.576C127.726 56.568 132.242 62.0407 136.536 67.5133ZM68.1745 21.3476C70.0808 20.1552 72.4593 19.6835 75.0783 19.6835C86.7481 19.6835 101.277 29.205 115.566 43.4783C108.279 51.3624 101.518 59.7092 95.3267 68.4654C84.5745 69.3464 73.9114 71.0104 63.4086 73.4575C62.2149 69.1773 61.5022 64.8882 60.7896 60.608C57.4579 40.3905 60.0769 26.1172 68.1656 21.3476H68.1745ZM55.7921 146.737C29.112 139.12 13.1574 127.472 13.1574 116.758C13.1574 107.477 24.1145 98.2044 43.4008 90.8275C47.2135 89.4037 51.4983 87.9711 55.7832 86.7875C59.0258 97.0209 62.9186 107.032 67.4529 116.767C62.6959 127 58.6338 137.225 55.7832 146.746L55.7921 146.737ZM60.7896 172.908C61.5022 168.868 62.4554 164.579 63.4086 160.058C73.4125 162.203 84.1291 163.867 95.3267 165.05C101.456 173.86 108.217 182.216 115.566 190.037C101.277 204.071 86.7481 213.832 75.0783 213.832C72.4593 213.832 70.3214 213.361 68.1745 212.168C60.068 207.648 57.4579 193.134 60.7985 172.908H60.7896Z" fill="#00D8FF"/>
<path d="M145.309 108.131C145.309 120.348 135.395 130.261 123.155 130.261C110.915 130.261 101 120.357 101 108.131C101 95.9041 110.915 86 123.155 86C135.395 86 145.309 95.913 145.309 108.131Z" stroke="black" stroke-width="4" stroke-miterlimit="10"/>
<path d="M122.996 191.159C140.384 208.048 157.524 218.041 171.34 218.041C175.866 218.041 180.159 217.089 183.723 214.953C196.105 207.808 200.631 189.966 196.346 164.508C195.633 159.987 194.68 155.467 193.486 150.706C198.243 149.282 202.537 147.849 206.822 146.426C230.883 137.144 244.218 124.295 244.218 110.271C244.218 95.9976 230.883 83.1481 206.822 74.116C202.537 72.452 198.243 71.0282 193.486 69.8358C194.68 65.084 195.633 60.5546 196.346 56.0342C200.39 30.1038 195.874 12.0219 183.482 4.87636C179.91 2.74071 175.616 1.78856 171.1 1.78856C157.524 1.78856 140.135 11.7816 122.755 28.6711C105.607 11.7727 88.4585 1.77966 74.6507 1.77966C70.1254 1.77966 65.8316 2.73181 62.2683 4.86746C49.8859 12.013 45.3606 29.8546 49.6454 55.3134C50.3581 59.8338 51.3113 64.3543 52.5049 69.115C47.748 70.5388 43.4542 71.9715 39.1694 73.3952C15.1172 82.6764 1.78165 95.5259 1.78165 109.55C1.78165 123.823 15.1172 136.673 39.1783 145.705C43.4631 147.369 47.7569 148.793 52.5139 149.985C51.3558 154.541 50.3937 159.142 49.6543 163.787C45.61 189.246 50.1265 207.327 62.2773 214.233C65.8494 216.377 70.1432 217.32 74.6597 217.32C88.4674 217.801 105.616 207.808 122.996 191.159ZM109.651 159.044C113.936 159.284 118.47 159.284 122.987 159.284C127.503 159.284 132.037 159.284 136.322 159.044C132.126 164.561 127.672 169.873 122.987 174.981C118.301 169.873 113.847 164.561 109.651 159.044ZM80.1204 134.537C82.4989 138.577 84.6457 142.395 87.2737 146.194C80.2451 145.296 73.2522 144.103 66.3216 142.626C68.4684 136.21 70.8469 129.536 73.6976 122.88C75.6039 126.68 77.7419 130.738 80.1204 134.537ZM87.2648 73.6266C84.8863 77.4352 82.5078 81.2438 80.1115 85.2837C77.7152 89.3237 75.5861 93.1411 73.6887 97.1811C70.7846 90.694 68.317 84.0112 66.3127 77.1949C66.3038 77.186 79.8799 74.5787 87.2648 73.6266ZM79.4077 109.79C82.4989 103.374 85.8305 96.9408 89.6522 90.525C93.2243 84.3405 97.2776 78.156 101.322 71.9715C115.762 71.0104 130.238 71.0104 144.678 71.9715C148.963 78.156 152.776 84.3405 156.348 90.525C160.161 96.9408 163.501 103.374 166.592 109.79C163.466 116.357 160.045 122.791 156.348 129.056C152.776 135.24 148.722 141.425 144.678 147.609C130.238 148.57 115.762 148.57 101.322 147.609C97.1796 141.585 93.2867 135.4 89.6522 129.056C85.9642 122.791 82.5434 116.366 79.4077 109.79ZM172.543 96.9497L166.12 85.0524C163.742 81.0124 161.595 77.1949 158.967 73.3952C166.343 74.3474 173.256 75.5398 179.919 76.9636C177.781 83.6197 175.394 90.2847 172.543 96.9497ZM172.543 122.64C175.403 129.296 177.781 135.961 179.919 142.386C173.256 143.81 166.343 145.002 158.967 145.954C161.345 142.145 163.724 138.337 166.12 134.297C168.258 130.738 172.543 122.64 172.543 122.64ZM178.013 205.201C176.106 206.393 173.728 206.865 171.109 206.865C159.439 206.865 144.91 197.343 130.621 183.07C137.899 175.186 144.66 166.839 150.86 158.083C161.613 157.202 172.276 155.538 182.779 153.091C183.972 157.371 184.685 161.66 185.398 165.94C188.729 186.158 186.11 200.671 178.022 205.201H178.013ZM233.039 109.79C233.039 119.072 222.081 128.344 202.795 135.73C198.983 137.153 194.698 138.586 190.413 139.77C187.17 129.536 183.277 119.525 178.743 109.79C183.5 99.557 187.562 89.5728 190.413 79.8111C190.413 79.8111 233.039 99.0854 233.039 109.79ZM171.349 12.7249C173.968 12.7249 176.106 13.1965 178.253 14.3889C186.119 18.9094 188.97 33.1827 185.629 53.6493C184.916 57.6893 183.963 61.9784 183.01 66.4989C172.463 64.2742 161.809 62.6102 151.092 61.5068C144.963 52.6972 138.202 44.3415 130.853 36.5196C145.141 22.4777 159.671 12.7249 171.34 12.7249H171.349ZM136.331 60.5457C132.046 60.3055 127.512 60.3055 122.996 60.3055C118.479 60.3055 113.945 60.3055 109.66 60.5457C113.945 54.8418 118.479 49.6005 122.996 44.6084C127.53 49.6005 132.046 55.082 136.331 60.5457ZM67.9696 14.3889C69.8759 13.1965 72.2544 12.7249 74.8735 12.7249C86.5432 12.7249 101.072 22.2463 115.361 36.5196C108.074 44.4037 101.313 52.7506 95.1218 61.5068C84.3696 62.3877 73.7065 64.0518 63.2037 66.4989C62.01 62.2187 61.2973 57.9296 60.5847 53.6493C57.253 33.4318 59.872 19.1585 67.9607 14.3889H67.9696ZM55.5961 139.778C28.916 132.161 12.9614 120.513 12.9614 109.799C12.9614 100.518 23.9185 91.2457 43.2048 83.8688C47.0175 82.4451 51.3023 81.0124 55.5872 79.8289C58.8298 90.0622 62.7227 100.073 67.2569 109.808C62.491 120.033 55.5961 139.778 55.5961 139.778ZM60.5936 165.94C61.3063 161.9 62.2594 157.611 63.2126 153.091C73.2165 155.235 83.9331 156.899 95.1307 158.083C101.26 166.892 108.021 175.248 115.37 183.07C101.081 197.103 86.5521 206.865 74.8824 206.865C72.2633 206.865 70.1254 206.393 67.9785 205.201C59.872 200.68 57.2619 186.167 60.6025 165.94H60.5936Z" stroke="black" stroke-width="3" stroke-miterlimit="10"/>
</g>
<defs>
<clipPath id="clip0_10_98">
<rect width="246" height="225" fill="white"/>
</clipPath>
</defs>
</svg>
