<svg width="223" height="215" viewBox="0 0 223 215" fill="none" xmlns="http://www.w3.org/2000/svg">
<path d="M153.916 153.298C161.925 152.474 168.004 145.619 167.735 137.394C167.455 129.169 160.545 122.592 152.256 122.592H151.706C143.137 122.87 136.508 129.993 136.788 138.496C137.069 142.614 138.717 146.175 141.208 148.646C131.808 167.021 117.439 180.454 95.8921 191.695C81.2429 199.374 66.0442 202.112 50.8455 200.198C38.4059 198.551 28.7372 193.064 22.6577 184.016C13.8191 170.582 12.989 156.047 20.4481 141.512C25.6975 131.095 33.9866 123.416 39.236 119.576C38.1253 116.015 36.4769 109.982 35.6468 105.597C-4.41932 134.389 -0.280598 173.32 11.8784 191.695C20.9976 205.406 39.5166 213.909 59.9647 213.909C65.4947 213.909 71.013 213.364 76.543 211.995C111.909 205.128 138.717 184.282 153.916 153.298ZM202.552 119.297C181.554 94.8904 150.596 81.4572 115.23 81.4572H110.81C108.32 76.5271 103.071 73.2326 97.2717 73.2326H96.7222C88.1525 73.511 81.5235 80.6336 81.8041 89.1366C82.0847 97.3612 88.9942 103.939 97.2834 103.939H97.8328C103.912 103.66 109.162 99.8205 111.371 94.612H116.34C137.338 94.612 157.236 100.644 175.206 112.43C189.025 121.478 198.974 133.264 204.493 147.533C209.193 159.052 208.912 170.292 203.943 179.886C196.204 194.421 183.214 202.367 166.087 202.367C155.038 202.367 144.528 199.073 139.01 196.613C135.97 199.351 130.44 203.748 126.57 206.485C138.448 211.972 150.607 214.988 162.217 214.988C188.744 214.988 208.362 200.453 215.833 185.918C223.83 170.026 223.269 142.602 202.552 119.297ZM62.1627 157.961C62.4433 166.186 69.3528 172.763 77.642 172.763H78.1915C86.7612 172.485 93.3902 165.362 93.1096 156.859C92.829 148.635 85.9194 142.057 77.6303 142.057H77.0808C76.5313 142.057 75.7012 142.057 75.1517 142.336C63.8228 123.694 59.1229 103.405 60.7831 81.4688C61.8821 65.0196 67.4121 50.7628 77.0925 38.9653C85.101 28.8151 100.58 23.8849 111.079 23.6065C140.366 23.0613 152.805 59.2543 153.635 73.7894C157.225 74.6131 163.304 76.5271 167.455 77.9075C164.134 33.4784 136.496 10.4402 109.968 10.4402C85.101 10.4402 62.1627 28.2699 53.0434 54.5909C40.335 89.6935 48.6241 123.416 64.0917 150.015C62.7122 151.929 61.8938 154.945 62.1627 157.961Z" fill="#764ABC"/>
<path d="M153.39 145.746C161.398 144.923 167.478 138.067 167.197 129.842C166.917 121.618 160.007 115.04 151.718 115.04H151.169C142.599 115.319 135.97 122.453 136.25 130.944C136.531 135.062 138.191 138.624 140.67 141.083C131.282 159.458 116.913 172.902 95.366 184.155C80.7284 191.834 65.5297 194.583 50.331 192.669C37.8915 191.034 28.2228 185.547 22.1316 176.499C13.2813 163.065 12.4512 148.53 19.9103 133.995C25.1597 123.578 33.4488 115.887 38.6982 112.047C37.5875 108.486 35.9274 102.454 35.0973 98.0689C-4.95713 126.872 -0.795032 165.815 11.3639 184.178C20.4831 197.89 39.0022 206.381 59.4503 206.369C64.9803 206.369 70.4986 205.813 76.0285 204.444C111.406 197.576 138.203 176.731 153.39 145.746ZM202.014 111.722C181.005 87.327 150.046 73.9055 114.68 73.9171H110.261C107.77 68.987 102.521 65.6925 96.7222 65.6925H96.1727C87.6029 65.9709 80.974 73.1051 81.2546 81.6081C81.5351 89.8327 88.4447 96.4101 96.7338 96.4101H97.2833C103.363 96.1317 108.612 92.292 110.822 87.0834H115.791C136.788 87.0718 156.687 93.104 174.656 104.878C188.476 113.927 198.425 125.712 203.967 139.969C208.666 151.488 208.398 162.729 203.429 172.322C195.701 186.858 182.712 194.815 165.584 194.827C154.536 194.827 144.025 191.544 138.495 189.073C135.455 191.811 129.925 196.207 126.067 198.945C137.957 204.42 150.116 207.437 161.714 207.437C188.242 207.425 207.86 192.89 215.319 178.355C223.304 162.439 222.743 135.016 202.014 111.722ZM61.6482 150.433C61.9288 158.657 68.8384 165.235 77.1275 165.235H77.677C86.2467 164.956 92.8757 157.822 92.5951 149.331C92.3145 141.106 85.405 134.529 77.1158 134.529H76.5663C76.0168 134.529 75.1868 134.529 74.6373 134.807C63.2967 116.165 58.5968 95.8765 60.2453 73.9403C61.3443 57.4911 66.8626 43.2227 76.5313 31.4368C84.5398 21.2865 100.019 16.3448 110.518 16.0664C139.805 15.5096 152.256 51.6909 153.098 66.2261C156.687 67.0497 162.766 68.9638 166.917 70.3326C163.561 25.915 135.923 2.88843 109.396 2.90003C84.5164 2.91163 61.5898 20.7413 52.4823 47.0624C39.7855 82.1649 48.0863 115.887 63.5773 142.475C62.1977 144.401 61.3676 147.417 61.6482 150.433Z" stroke="black" stroke-width="3" stroke-miterlimit="10"/>
</svg>
